<svg width="99" height="103" viewBox="0 0 99 103" fill="none" xmlns="http://www.w3.org/2000/svg">
<path d="M0.04 51.6C0.04 41.712 2.248 32.88 6.664 25.104C11.176 17.232 17.272 11.136 24.952 6.816C32.728 2.4 41.416 0.191998 51.016 0.191998C62.248 0.191998 72.088 3.072 80.536 8.832C88.984 14.592 94.888 22.56 98.248 32.736H75.064C72.76 27.936 69.496 24.336 65.272 21.936C61.144 19.536 56.344 18.336 50.872 18.336C45.016 18.336 39.784 19.728 35.176 22.512C30.664 25.2 27.112 29.04 24.52 34.032C22.024 39.024 20.776 44.88 20.776 51.6C20.776 58.224 22.024 64.08 24.52 69.168C27.112 74.16 30.664 78.048 35.176 80.832C39.784 83.52 45.016 84.864 50.872 84.864C56.344 84.864 61.144 83.664 65.272 81.264C69.496 78.768 72.76 75.12 75.064 70.32H98.248C94.888 80.592 88.984 88.608 80.536 94.368C72.184 100.032 62.344 102.864 51.016 102.864C41.416 102.864 32.728 100.704 24.952 96.384C17.272 91.968 11.176 85.872 6.664 78.096C2.248 70.32 0.04 61.488 0.04 51.6Z" fill="#26775F"/>
</svg>
